<?xml version="1.0" encoding="UTF-8"?>
<svg width="20px" height="20px" viewBox="0 0 20 20" version="1.1" xmlns="http://www.w3.org/2000/svg" xmlns:xlink="http://www.w3.org/1999/xlink">
    <!-- Generator: Sketch 64 (93537) - https://sketch.com -->
    <title>图标/侧边导航栏/未选中/leftBar_ic_喵点_nor@1x</title>
    <desc>Created with Sketch.</desc>
    <g id="图标/侧边导航栏/未选中/leftBar_ic_喵点_nor" stroke="none" stroke-width="1" fill="none" fill-rule="evenodd">
        <g id="编组-2备份" transform="translate(1.000000, 3.000000)">
            <path d="M6.40506442,3.24352423 C7.31313781,3.0473111 8.22089397,2.94920453 9.12833291,2.94920453 C9.99575828,2.94920453 10.8403153,3.03884982 11.6620038,3.21814041 M17.9833034,13.5257006 C14.9888689,14.5085669 11.9944345,15 9,15 C6.00556554,15 3.01113108,14.5085669 0.0166966153,13.5257006 M0.0166966153,13.4936506 C-0.101253358,11.4196441 0.405722557,9.09093982 1.53762436,6.50753781 C2.53411491,4.23319239 3.71920438,2.1337644 5.09289278,0.20925384 C5.25168393,-0.0131776283 5.56354035,-0.0667698048 5.78945878,0.0895628879 C5.87595139,0.149414676 5.94095034,0.234720018 5.97511773,0.333223751 C6.40814286,1.58162438 6.73291171,2.51792486 6.94942427,3.14212517 M17.9833034,13.4936506 C18.1012534,11.4196441 17.5942774,9.09093982 16.4623756,6.50753781 C15.4658851,4.23319239 14.2807956,2.1337644 12.9071072,0.20925384 C12.7483161,-0.0131776283 12.4364597,-0.0667698048 12.2105412,0.0895628879 C12.1240486,0.149414676 12.0590497,0.234720018 12.0248823,0.333223751 C11.5973425,1.56581035 11.2766876,2.4902503 11.0629177,3.1065436" id="形状结合" stroke="#8AA4D1" stroke-width="1.63636364" stroke-linecap="round" stroke-linejoin="round"></path>
            <path d="M7.5404223,6 L10.4595777,6 C10.8119706,6 11.0976415,6.2856709 11.0976415,6.63806381 C11.0976415,6.80728885 11.0304171,6.96958288 10.9107569,7.08924305 L9.45117924,8.54882076 C9.20199983,8.79800017 8.79800017,8.79800017 8.54882076,8.54882076 L7.08924305,7.08924305 C6.84006363,6.84006363 6.84006363,6.43606398 7.08924305,6.18688456 C7.20890323,6.06722439 7.37119725,6 7.5404223,6 Z" id="矩形" fill="#8AA4D1" opacity="0.5"></path>
        </g>
    </g>
</svg>