<?xml version="1.0" encoding="UTF-8"?>
<svg width="20px" height="20px" viewBox="0 0 20 20" version="1.1" xmlns="http://www.w3.org/2000/svg" xmlns:xlink="http://www.w3.org/1999/xlink">
    <!-- Generator: Sketch 64 (93537) - https://sketch.com -->
    <title>图标/侧边导航栏/选中/leftBar_ic_喵点_sel@1x</title>
    <desc>Created with Sketch.</desc>
    <g id="图标/侧边导航栏/选中/leftBar_ic_喵点_sel" stroke="none" stroke-width="1" fill="none" fill-rule="evenodd">
        <path d="M1,16.5 C3.33333333,7.5 5,3 6,3 C7,3 7.66666667,4 8,6 L12.5,6 L13.5,3 C17.1666667,8.33333333 19,12.6666667 19,16 C13,18.3333333 7,18.5 1,16.5 Z" id="路径-18" fill="#2A6AFF"></path>
        <path d="M7.40506442,6.24352423 C8.31313781,6.0473111 9.22089397,5.94920453 10.1283329,5.94920453 C10.9957583,5.94920453 11.8403153,6.03884982 12.6620038,6.21814041 M18.9833034,16.5257006 C15.9888689,17.5085669 12.9944345,18 10,18 C7.00556554,18 4.01113108,17.5085669 1.01669662,16.5257006 M1.01669662,16.4936506 C0.898746642,14.4196441 1.40572256,12.0909398 2.53762436,9.50753781 C3.53411491,7.23319239 4.71920438,5.1337644 6.09289278,3.20925384 C6.25168393,2.98682237 6.56354035,2.9332302 6.78945878,3.08956289 C6.87595139,3.14941468 6.94095034,3.23472002 6.97511773,3.33322375 C7.40814286,4.58162438 7.73291171,5.51792486 7.94942427,6.14212517 M18.9833034,16.4936506 C19.1012534,14.4196441 18.5942774,12.0909398 17.4623756,9.50753781 C16.4658851,7.23319239 15.2807956,5.1337644 13.9071072,3.20925384 C13.7483161,2.98682237 13.4364597,2.9332302 13.2105412,3.08956289 C13.1240486,3.14941468 13.0590497,3.23472002 13.0248823,3.33322375 C12.5973425,4.56581035 12.2766876,5.4902503 12.0629177,6.1065436" id="形状结合" stroke="#2A6AFF" stroke-width="1.63636364" stroke-linecap="round" stroke-linejoin="round"></path>
        <path d="M8.5404223,9 L11.4595777,9 C11.8119706,9 12.0976415,9.2856709 12.0976415,9.63806381 C12.0976415,9.80728885 12.0304171,9.96958288 11.9107569,10.0892431 L10.4511792,11.5488208 C10.2019998,11.7980002 9.79800017,11.7980002 9.54882076,11.5488208 L8.08924305,10.0892431 C7.84006363,9.84006363 7.84006363,9.43606398 8.08924305,9.18688456 C8.20890323,9.06722439 8.37119725,9 8.5404223,9 Z" id="矩形" fill="#C8E0FF"></path>
    </g>
</svg>