<?xml version="1.0" encoding="UTF-8"?>
<svg width="20px" height="20px" viewBox="0 0 20 20" version="1.1" xmlns="http://www.w3.org/2000/svg" xmlns:xlink="http://www.w3.org/1999/xlink">
    <!-- Generator: Sketch 64 (93537) - https://sketch.com -->
    <title>图标/面形图标/ic_dangerous@1x</title>
    <desc>Created with Sketch.</desc>
    <g id="图标/面形图标/ic_dangerous" stroke="none" stroke-width="1" fill="none" fill-rule="evenodd">
        <path d="M10,0 C15.5228475,0 20,4.4771525 20,10 C20,15.5228475 15.5228475,20 10,20 C4.4771525,20 1.70460868e-13,15.5228475 1.70460868e-13,10 C1.70460868e-13,4.4771525 4.4771525,0 10,0 Z M6.46446609,5.05025253 C6.0739418,4.65972824 5.44077682,4.65972824 5.05025253,5.05025253 C4.65972824,5.44077682 4.65972824,6.0739418 5.05025253,6.46446609 L5.05025253,6.46446609 L8.586,10 L5.05025253,13.5355339 C4.68976857,13.8960179 4.66203903,14.4632489 4.96706393,14.8555401 L5.05025253,14.9497475 C5.44077682,15.3402718 6.0739418,15.3402718 6.46446609,14.9497475 L6.46446609,14.9497475 L10,11.414 L13.5355339,14.9497475 C13.8960179,15.3102314 14.4632489,15.337961 14.8555401,15.0329361 L14.9497475,14.9497475 C15.3402718,14.5592232 15.3402718,13.9260582 14.9497475,13.5355339 L14.9497475,13.5355339 L11.414,10 L14.9497475,6.46446609 C15.3102314,6.10398213 15.337961,5.53675108 15.0329361,5.14445987 L14.9497475,5.05025253 C14.5592232,4.65972824 13.9260582,4.65972824 13.5355339,5.05025253 L13.5355339,5.05025253 L10,8.586 Z" id="椭圆形-2" fill="#F56C6C"></path>
    </g>
</svg>