<?xml version="1.0" encoding="UTF-8"?>
<svg width="20px" height="20px" viewBox="0 0 20 20" version="1.1" xmlns="http://www.w3.org/2000/svg" xmlns:xlink="http://www.w3.org/1999/xlink">
    <!-- Generator: Sketch 64 (93537) - https://sketch.com -->
    <title>图标/侧边导航栏/未选中/leftBar_ic_detail_nor@1x</title>
    <desc>Created with Sketch.</desc>
    <g id="图标/侧边导航栏/未选中/leftBar_ic_detail_nor" stroke="none" stroke-width="1" fill="none" fill-rule="evenodd">
        <g id="编组" transform="translate(1.500000, 1.000000)" fill="#8AA4D1">
            <rect id="矩形" x="0" y="0" width="2" height="17" rx="1"></rect>
            <rect id="矩形备份" transform="translate(8.500000, 16.500000) rotate(90.000000) translate(-8.500000, -16.500000) " x="7.5" y="8" width="2" height="17" rx="1"></rect>
            <path d="M8.02132034,6.02512627 L10.858233,8.86167966 L14.5497475,5.17157288 C14.9402718,4.78104858 15.5734367,4.78104858 15.963961,5.17157288 C16.3544853,5.56209717 16.3544853,6.19526215 15.963961,6.58578644 L11.7213203,10.8284271 C11.6805726,10.8691749 11.6371831,10.905671 11.5917033,10.9379154 C11.5811295,10.9499671 11.5691866,10.9625414 11.5568542,10.9748737 C11.16633,11.365398 10.533165,11.365398 10.1426407,10.9748737 L7.29023305,8.12267966 L4.43933983,10.9748737 C4.04881554,11.365398 3.41565056,11.365398 3.02512627,10.9748737 C2.63460197,10.5843494 2.63460197,9.95118446 3.02512627,9.56066017 L6.56066017,6.02512627 C6.74090215,5.84488429 6.97283091,5.74783091 7.20873557,5.73396614 L7.37324495,5.73396614 C7.60914961,5.74783091 7.84107836,5.84488429 8.02132034,6.02512627 Z" id="形状结合" opacity="0.5"></path>
        </g>
    </g>
</svg>