<?xml version="1.0" encoding="UTF-8"?>
<svg width="20px" height="20px" viewBox="0 0 20 20" version="1.1" xmlns="http://www.w3.org/2000/svg" xmlns:xlink="http://www.w3.org/1999/xlink">
    <!-- Generator: Sketch 64 (93537) - https://sketch.com -->
    <title>图标/侧边导航栏/选中/leftBar_ic_detail_sel@1x</title>
    <desc>Created with Sketch.</desc>
    <g id="图标/侧边导航栏/选中/leftBar_ic_detail_sel" stroke="none" stroke-width="1" fill="none" fill-rule="evenodd">
        <g id="编组" transform="translate(1.500000, 1.000000)">
            <rect id="矩形" fill="#2A6AFF" x="0" y="0" width="17" height="18" rx="2"></rect>
            <path d="M6.7890873,6.14644661 L9.626,8.983 L13.3175144,5.29289322 C13.7080387,4.90236893 14.3412037,4.90236893 14.731728,5.29289322 C15.1222523,5.68341751 15.1222523,6.31658249 14.731728,6.70710678 L10.4890873,10.9497475 C10.4483395,10.9904952 10.4049501,11.0269913 10.3594703,11.0592358 C10.3488965,11.0712874 10.3369535,11.0838617 10.3246212,11.0961941 C9.93409691,11.4867184 9.30093193,11.4867184 8.91040764,11.0961941 L6.058,8.244 L3.20710678,11.0961941 C2.81658249,11.4867184 2.18341751,11.4867184 1.79289322,11.0961941 C1.40236893,10.7056698 1.40236893,10.0725048 1.79289322,9.68198052 L5.32842712,6.14644661 C5.50866911,5.96620463 5.74059786,5.86915125 5.97650252,5.85528649 L6.1410119,5.85528649 C6.37691656,5.86915125 6.60884532,5.96620463 6.7890873,6.14644661 Z" id="形状结合" fill="#C8E0FF"></path>
        </g>
    </g>
</svg>