<?xml version="1.0" encoding="UTF-8"?>
<svg width="16px" height="16px" viewBox="0 0 16 16" version="1.1" xmlns="http://www.w3.org/2000/svg" xmlns:xlink="http://www.w3.org/1999/xlink">
    <!-- Generator: Sketch 64 (93537) - https://sketch.com -->
    <title>图标/导航栏/nav_ic_down@1x</title>
    <desc>Created with Sketch.</desc>
    <g id="图标/导航栏/nav_ic_down" stroke="none" stroke-width="1" fill="none" fill-rule="evenodd">
        <rect id="矩形" fill="#8AA4D1" x="0" y="14.5" width="16" height="1.5" rx="0.75"></rect>
        <path d="M8,0 C8.41421356,-7.6089797e-17 8.75,0.335786438 8.75,0.75 L8.74975229,9.518 L10.7125262,7.5570319 C11.0053798,7.26421882 11.4801384,7.26419319 11.7730236,7.55697466 C12.0391981,7.82305491 12.0634652,8.2394965 11.8457766,8.53299308 L11.7730808,8.61721093 L11.7730808,8.61721093 L8.59077468,11.799077 C8.55771529,11.8321318 8.52233779,11.8614555 8.4851655,11.887048 L8.56114751,11.8191449 C8.26826232,12.1119264 7.79350371,12.1119007 7.50065013,11.8190877 L4.31834403,8.63722163 C4.05219825,8.37111265 4.02797605,7.95466844 4.24569634,7.66119537 L4.31827072,7.57711589 C4.31831423,7.57707237 4.31835774,7.57702887 4.31840126,7.57698537 C4.61128644,7.2842039 5.08604506,7.28422953 5.37889863,7.57704261 L7.24975229,9.447 L7.25,0.75 C7.25,0.335786438 7.58578644,7.6089797e-17 8,0 Z" id="形状结合" fill="#8AA4D1"></path>
    </g>
</svg>