<?xml version="1.0" encoding="UTF-8"?>
<svg width="40px" height="40px" viewBox="0 0 40 40" version="1.1" xmlns="http://www.w3.org/2000/svg" xmlns:xlink="http://www.w3.org/1999/xlink">
    <!-- Generator: Sketch 64 (93537) - https://sketch.com -->
    <title>图标/面形图标/withdraw_ic_cash@1x</title>
    <desc>Created with Sketch.</desc>
    <g id="图标/面形图标/withdraw_ic_cash" stroke="none" stroke-width="1" fill="none" fill-rule="evenodd">
        <rect id="矩形" fill="#F2F6FD" x="0" y="0" width="40" height="40" rx="14"></rect>
        <g id="现金-(1)" transform="translate(10.000000, 9.000000)" fill-rule="nonzero" stroke="#2A6AFF">
            <path d="M17.0577416,7.21512606 C16.7085819,6.82436976 16.0492122,6.27693278 15.0796324,5.57281512 C16.0103887,4.79054622 16.4757668,4.10609244 16.4757668,3.51945378 C16.4757668,2.11159665 15.1378676,1.05579831 13.508792,1.05579831 C13.1597584,1.05579831 12.8107248,1.11441176 12.5199265,1.2320168 C12.3452206,1.29063026 12.2873635,1.34924369 12.1708929,1.40785714 C12.1126576,1.40785714 11.996187,1.40785714 11.9379517,1.34924371 C11.7795605,1.10447237 11.5832421,0.886454253 11.356355,0.703361353 C10.891229,0.293445372 10.3674895,0.0586134513 9.78551471,0 C9.20391806,0.0586134513 8.68017857,0.293445372 8.21467437,0.70373949 C8.05963236,0.860294118 7.86576681,1.07546219 7.63307773,1.34924371 C7.40038865,1.23201682 7.22580882,1.1537395 7.10933824,1.11441176 C6.81853992,0.997184883 6.46950629,0.938571432 6.12047269,0.938571432 C4.54963235,0.938571432 3.1534979,1.99436974 3.1534979,3.40222688 C3.1534979,3.98886554 3.61887605,4.67331932 4.54963235,5.45558824 C3.58005252,6.19852941 2.92080882,6.74596639 2.57190125,7.09789916 C1.00030463,8.74058824 0.0118172358,10.6177311 0.0118172358,12.6707143 C0.0118172358,18.4193697 4.43316176,21.1764706 9.72727941,21.1764706 L9.96022059,21.1764706 C15.2543382,21.1764706 19.6756828,18.4197479 19.6756828,12.6707143 C19.6174475,10.6763445 18.6282038,8.79920169 17.0577416,7.21512606 Z" id="路径" stroke-width="2" stroke-linejoin="round"></path>
            <path d="M12.6942542,13.14 C13.043666,13.14 13.276229,13.3744538 13.276229,13.7265126 C13.276229,14.0781933 13.043666,14.3130252 12.6942542,14.3130252 L10.3674895,14.3130252 L10.3674895,16.6008403 C10.3674895,16.9528992 10.1345483,17.1877311 9.78551471,17.1877311 C9.4364811,17.1877311 9.20391806,16.9528992 9.20391806,16.6008403 L9.20391806,14.3130252 L6.87677522,14.3130252 C6.52774161,14.3130252 6.29480043,14.0785714 6.29480041,13.7268908 C6.29480041,13.3744538 6.52774159,13.14 6.87677522,13.14 L9.20391806,13.14 L9.20391806,11.7321429 L6.81853992,11.7321429 C6.46950631,11.7321429 6.23694327,11.4976891 6.23694327,11.1456303 C6.23694327,10.7935714 6.46950629,10.5587395 6.81853992,10.5587395 L8.56370798,10.5587395 L6.64383404,8.6229832 C6.53238227,8.51550668 6.46942408,8.36733119 6.46942408,8.2125 C6.46942408,8.05766881 6.53238227,7.90949332 6.64383404,7.8020168 C6.87677522,7.56756302 7.22580882,7.56756302 7.45837184,7.8020168 L9.78551471,10.1484454 L12.1126576,7.8020168 C12.3452206,7.56756302 12.6942542,7.56756302 12.9271954,7.8020168 C13.1597584,8.03647059 13.1597584,8.38815125 12.9271954,8.6229832 L11.0073214,10.5591176 L12.7524895,10.5591176 C13.1015231,10.5591176 13.3344643,10.7935714 13.3344643,11.1452521 C13.3344643,11.4973109 13.1015231,11.7321429 12.7524895,11.7321429 L10.3674895,11.7321429 L10.3674895,13.14 L12.6942542,13.14 L12.6942542,13.14 Z" id="路径" stroke-width="0.8" fill="#2A6AFF"></path>
        </g>
    </g>
</svg>