<?xml version="1.0" encoding="UTF-8"?>
<svg width="16px" height="16px" viewBox="0 0 16 16" version="1.1" xmlns="http://www.w3.org/2000/svg" xmlns:xlink="http://www.w3.org/1999/xlink">
    <!-- Generator: Sketch 64 (93537) - https://sketch.com -->
    <title>图标/线性/miaodian_ic_according@1x</title>
    <desc>Created with Sketch.</desc>
    <g id="图标/线性/miaodian_ic_according" stroke="none" stroke-width="1" fill="none" fill-rule="evenodd">
        <path d="M8,3.5 C6.44585359,3.5 4.95898522,4.0050536 3.69740872,4.81895605 C2.42552559,5.63950778 1.38052618,6.77464438 0.728556729,8.03380783 C2.03901574,10.0863056 4.88680213,12.1 8,12.1 C9.55203473,12.1 11.0369321,11.5945722 12.2982875,10.7818211 C13.5733732,9.96022305 14.6221547,8.82389107 15.2789862,7.56657062 C13.96152,5.50792049 11.111745,3.5 8,3.5 Z" id="路径" stroke="#97A1B2" fill-rule="nonzero"></path>
        <path d="M10.4883794,6.47807154 C10.4883794,7.01741835 10.0615578,7.44852254 9.52449749,7.44852256 C9.26561508,7.44765854 9.01770367,7.34488392 8.83539781,7.16284812 C8.65309195,6.98081231 8.55135468,6.73445618 8.5526068,6.47807154 C8.5526068,5.94618973 8.98790831,5.51508554 9.52449749,5.51508554 C9.59233668,5.51508554 9.65075377,5.54027994 9.71765077,5.54867808 C9.21612482,5.19436074 8.61605051,5.00267589 8,5 C6.34076634,5 5,6.3437014 5,8.00466564 C5,9.6562986 6.34076634,11 8,11 C9.65829145,11 11,9.65536547 11,8.00466564 C11,7.36547435 10.7898869,6.7673406 10.4459799,6.28584759 C10.4638819,6.35303266 10.4883794,6.41088647 10.4883794,6.47713843 L10.4883794,6.47807154 L10.4883794,6.47807154 Z" id="路径" fill="#97A1B2" fill-rule="nonzero"></path>
    </g>
</svg>