<?xml version="1.0" encoding="UTF-8"?>
<svg width="40px" height="40px" viewBox="0 0 40 40" version="1.1" xmlns="http://www.w3.org/2000/svg" xmlns:xlink="http://www.w3.org/1999/xlink">
    <!-- Generator: Sketch 64 (93537) - https://sketch.com -->
    <title>图标/面形图标/withdraw_ic_miaodian@1x</title>
    <desc>Created with Sketch.</desc>
    <g id="图标/面形图标/withdraw_ic_miaodian" stroke="none" stroke-width="1" fill="none" fill-rule="evenodd">
        <rect id="矩形备份-2" fill="#FFFAE8" x="0" y="0" width="40" height="40" rx="14"></rect>
        <g id="编组-2备份" transform="translate(9.000000, 11.000000)">
            <path d="M8.32841207,3.89222908 C9.43827954,3.65677331 10.5477593,3.53904543 11.6568513,3.53904543 C12.7170379,3.53904543 13.7492742,3.64661979 14.7535602,3.8617685 M22.479593,16.2308407 C18.8197287,17.4102802 15.1598643,18 11.5,18 C7.84013566,18 4.18027132,17.4102802 0.520406974,16.2308407 M0.520406974,16.1923807 C0.376245896,13.7035729 0.995883126,10.9091278 2.37931866,7.80904538 C3.59725156,5.07983086 5.04569425,2.56051728 6.72464673,0.251104608 C6.9187248,-0.015813154 7.29988265,-0.0801237657 7.57600518,0.107475465 C7.68171837,0.179297611 7.76116153,0.281664021 7.80292167,0.399868502 C8.33217461,1.89794926 8.72911431,3.02150983 8.99374077,3.77055021 M22.479593,16.1923807 C22.6237541,13.7035729 22.0041169,10.9091278 20.6206813,7.80904538 C19.4027484,5.07983086 17.9543058,2.56051728 16.2753533,0.251104608 C16.0812752,-0.015813154 15.7001174,-0.0801237657 15.4239948,0.107475465 C15.3182816,0.179297611 15.2388385,0.281664021 15.1970783,0.399868502 C14.6745297,1.87897242 14.2826182,2.98830036 14.0213438,3.72785233" id="形状结合" stroke="#FFC941" stroke-width="2" stroke-linecap="round" stroke-linejoin="round"></path>
            <path d="M10.0404223,8 L12.9595777,8 C13.3119706,8 13.5976415,8.2856709 13.5976415,8.63806381 C13.5976415,8.80728885 13.5304171,8.96958288 13.4107569,9.08924305 L11.9511792,10.5488208 C11.7019998,10.7980002 11.2980002,10.7980002 11.0488208,10.5488208 L9.58924305,9.08924305 C9.34006363,8.84006363 9.34006363,8.43606398 9.58924305,8.18688456 C9.70890323,8.06722439 9.87119725,8 10.0404223,8 Z" id="矩形" fill="#FFC941"></path>
        </g>
    </g>
</svg>