<?xml version="1.0" encoding="UTF-8"?>
<svg width="20px" height="20px" viewBox="0 0 20 20" version="1.1" xmlns="http://www.w3.org/2000/svg" xmlns:xlink="http://www.w3.org/1999/xlink">
    <!-- Generator: Sketch 64 (93537) - https://sketch.com -->
    <title>图标/侧边导航栏/未选中/leftBar_ic_staff_nor@1x</title>
    <desc>Created with Sketch.</desc>
    <g id="图标/侧边导航栏/未选中/leftBar_ic_staff_nor" stroke="none" stroke-width="1" fill="none" fill-rule="evenodd">
        <g id="编组-2" transform="translate(2.500000, 1.500000)" stroke="#8AA4D1" stroke-width="2">
            <path d="M12.8571429,0.5 C14.0406102,0.5 15,1.3954305 15,2.5 L15,14.5 C15,15.6045695 14.0406102,16.5 12.8571429,16.5 L2.14285714,16.5 C0.959389822,16.5 0,15.6045695 0,14.5 L0,2.5 C0,1.3954305 0.959389822,0.5 2.14285714,0.5 M5.89285714,0.5 L9.10714286,0.5" id="形状" stroke-linecap="round"></path>
            <g id="编组" transform="translate(3.500000, 2.500000)" opacity="0.5">
                <path d="M4,1 C3.45046082,1 2.95511088,1.23584872 2.60030621,1.63852387 C2.21754798,2.07292407 2,2.68832414 2,3.4047619 C2,3.98694684 2.22652143,4.51539269 2.59680391,4.89743017 C2.95591504,5.26794166 3.45121186,5.5 4,5.5 C4.54953918,5.5 5.04488912,5.26415128 5.39969379,4.86147613 C5.78245202,4.42707593 6,3.81167586 6,3.0952381 C6,2.51305316 5.77347857,1.98460731 5.40319609,1.60256983 C5.04408496,1.23205834 4.54878814,1 4,1 Z" id="路径" fill-rule="nonzero"></path>
                <path d="M8,11 C7.55410859,9.27695332 5.93229299,8 3.99986278,8 C2.06782882,8 0.446282084,9.27642969 0,10.9989401" id="路径" stroke-linecap="round"></path>
            </g>
        </g>
    </g>
</svg>