<?xml version="1.0" encoding="UTF-8"?>
<svg width="20px" height="20px" viewBox="0 0 20 20" version="1.1" xmlns="http://www.w3.org/2000/svg" xmlns:xlink="http://www.w3.org/1999/xlink">
    <!-- Generator: Sketch 64 (93537) - https://sketch.com -->
    <title>图标/侧边导航栏/未选中/leftBar_ic_player_nor@1x</title>
    <desc>Created with Sketch.</desc>
    <g id="图标/侧边导航栏/未选中/leftBar_ic_player_nor" stroke="none" stroke-width="1" fill="none" fill-rule="evenodd">
        <path d="M10,1.41421356 L7.48520461,3.92787716 L3.92922887,3.92893214 L3.92783807,7.48524372 L1.4143727,9.99984082 L3.92787717,12.5137056 L3.92893214,16.0707712 L7.48524373,16.0710302 L10,18.5857864 L12.5136635,16.0709911 L16.0710894,16.0710678 L16.0709882,12.5136664 L18.5859456,9.99984086 L16.0709911,7.48524658 L16.0710678,3.92891061 L12.5136664,3.92788001 L10,1.41421356 Z" id="形状结合" stroke="#8AA4D1" stroke-width="2"></path>
        <path d="M13.9297475,7.29289322 C14.3202718,7.68341751 14.3202718,8.31658249 13.9297475,8.70710678 L9.68710678,12.9497475 C9.41111125,13.225743 9.01392436,13.306684 8.66684544,13.1925705 C8.49396777,13.1521673 8.32952566,13.0637392 8.19421356,12.9284271 L6.07289322,10.8071068 C5.68236893,10.4165825 5.68236893,9.78341751 6.07289322,9.39289322 C6.46341751,9.00236893 7.09658249,9.00236893 7.48710678,9.39289322 L8.951,10.856 L12.5155339,7.29289322 C12.9060582,6.90236893 13.5392232,6.90236893 13.9297475,7.29289322 Z" id="形状结合" fill="#8AA4D1" opacity="0.5"></path>
    </g>
</svg>