<?xml version="1.0" encoding="UTF-8"?>
<svg width="20px" height="20px" viewBox="0 0 20 20" version="1.1" xmlns="http://www.w3.org/2000/svg" xmlns:xlink="http://www.w3.org/1999/xlink">
    <!-- Generator: Sketch 64 (93537) - https://sketch.com -->
    <title>图标/侧边导航栏/选中/leftBar_ic_player_sel@1x</title>
    <desc>Created with Sketch.</desc>
    <g id="图标/侧边导航栏/选中/leftBar_ic_player_sel" stroke="none" stroke-width="1" fill="none" fill-rule="evenodd">
        <path d="M10.7071068,0.707106781 L12.928,2.928 L16.0710678,2.92893219 C16.6233526,2.92893219 17.0710678,3.37664744 17.0710678,3.92893219 L17.071,7.071 L19.2928932,9.29289322 C19.6834175,9.68341751 19.6834175,10.3165825 19.2928932,10.7071068 L17.071,12.928 L17.0710678,16.0710678 C17.0710678,16.6233526 16.6233526,17.0710678 16.0710678,17.0710678 L12.928,17.071 L10.7071068,19.2928932 C10.3165825,19.6834175 9.68341751,19.6834175 9.29289322,19.2928932 L7.071,17.071 L3.92893219,17.0710678 C3.37664744,17.0710678 2.92893219,16.6233526 2.92893219,16.0710678 L2.928,12.928 L0.707106781,10.7071068 C0.316582489,10.3165825 0.316582489,9.68341751 0.707106781,9.29289322 L2.928,7.071 L2.92893219,3.92893219 C2.92893219,3.37664744 3.37664744,2.92893219 3.92893219,2.92893219 L7.071,2.928 L9.29289322,0.707106781 C9.68341751,0.316582489 10.3165825,0.316582489 10.7071068,0.707106781 Z" id="形状结合" fill="#2A6AFF"></path>
        <path d="M13.9297475,7.29289322 C14.3202718,7.68341751 14.3202718,8.31658249 13.9297475,8.70710678 L9.68710678,12.9497475 C9.41111125,13.225743 9.01392436,13.306684 8.66684544,13.1925705 C8.49396777,13.1521673 8.32952566,13.0637392 8.19421356,12.9284271 L6.07289322,10.8071068 C5.68236893,10.4165825 5.68236893,9.78341751 6.07289322,9.39289322 C6.46341751,9.00236893 7.09658249,9.00236893 7.48710678,9.39289322 L8.951,10.856 L12.5155339,7.29289322 C12.9060582,6.90236893 13.5392232,6.90236893 13.9297475,7.29289322 Z" id="形状结合" fill="#C8E0FF"></path>
    </g>
</svg>