<?xml version="1.0" encoding="UTF-8"?>
<svg width="16px" height="16px" viewBox="0 0 16 16" version="1.1" xmlns="http://www.w3.org/2000/svg" xmlns:xlink="http://www.w3.org/1999/xlink">
    <!-- Generator: Sketch 64 (93537) - https://sketch.com -->
    <title>图标/导航栏/nav_ic_state@1x</title>
    <desc>Created with Sketch.</desc>
    <g id="图标/导航栏/nav_ic_state" stroke="none" stroke-width="1" fill="none" fill-rule="evenodd">
        <g id="iocn/问号">
            <g id="icon_info">
                <path d="M7.99983841,0 C3.60003393,0 0,3.60003393 0,8.00001077 C0,12.3999661 3.60003393,16 7.99983841,16 C12.3998799,16 16,12.3999661 16,8.00001077 C16,3.60003393 12.3998799,0 7.99983841,0 Z" id="说明" fill="#C7D4EA"></path>
                <polygon id="Path" fill="#FFFFFF" points="7.2 13.6 8.8 13.6 8.8 12 7.2 12"></polygon>
                <path d="M10.4800245,7.44003016 L9.75987666,8.15992675 C9.11993914,8.72009049 8.80004578,9.19997846 8.80004578,10.4 L7.2000404,10.4 L7.2000404,10 C7.2000404,9.12002585 7.51991221,8.32000431 8.1599359,7.76001293 L9.11993914,6.71998276 C9.4399833,6.48003878 9.60005925,6.08010341 9.60005925,5.60006463 C9.60005925,4.72000431 8.8799114,4.00002154 7.99988151,4.00002154 C7.1200886,4.00002154 6.39994075,4.71993967 6.39994075,5.60006463 L4.8,5.60006463 C4.8,3.84005171 6.24012334,2.4 7.99988151,2.4 C9.75987666,2.4 11.2,3.84005171 11.2,5.60006463 C11.2,6.3200474 10.8799343,6.96007756 10.4800245,7.44003016 Z" id="Path" fill="#FFFFFF"></path>
            </g>
        </g>
    </g>
</svg>